<?xml version="1.0" standalone="no"?>
<!DOCTYPE svg PUBLIC "-//W3C//DTD SVG 20010904//EN"
 "http://www.w3.org/TR/2001/REC-SVG-20010904/DTD/svg10.dtd">
<svg version="1.0" xmlns="http://www.w3.org/2000/svg"
 width="96.000000pt" height="96.000000pt" viewBox="0 0 96.000000 96.000000"
 preserveAspectRatio="xMidYMid meet">

<g transform="translate(0.000000,96.000000) scale(0.100000,-0.100000)"
fill="#000000" stroke="none">
<path d="M490 718 c-46 -13 -96 -52 -115 -88 l-15 -29 -118 -3 -117 -3 0 -185
0 -185 180 0 c168 0 183 2 222 23 24 12 55 40 69 62 l26 39 115 3 114 3 0 185
0 185 -163 2 c-90 1 -179 -3 -198 -9z m45 -148 c66 -41 107 -130 91 -194 -6
-23 -11 -26 -54 -26 -98 0 -165 37 -202 111 -20 38 -26 92 -13 124 9 26 128
16 178 -15z"/>
</g>
</svg>
